<?xml version="1.0" encoding="UTF-8"?>
<svg id="Layer_2" data-name="Layer 2" xmlns="http://www.w3.org/2000/svg" viewBox="0 0 676.8 916">
  <defs>
    <style>
      .cls-1 {
        fill: none;
        stroke: #000;
        stroke-miterlimit: 10;
        stroke-width: 4px;
      }
    </style>
  </defs>
  <g id="Layer_1-2" data-name="Layer 1">
    <path class="cls-1" d="M349.46,755c-7.36,0-14.39-.36-21.09-1.09,39-3.59,70.62-15.65,94.83-36.24,29.31-24.94,38.32-59.1,35.89-117.27l-1.7-598.34h46.78l1.7,598.34c1.52,36.34-1.43,63.3-11,84.51-5.75,12.71-13.88,23.35-24.86,32.69-29.33,24.94-69.52,37.39-120.55,37.39ZM307.72,913.42c-2.61-.12-5.21-.25-7.78-.41-.47-.03-.95-.06-1.42-.09-2.45-.15-4.89-.32-7.31-.51-.59-.05-1.18-.09-1.76-.14-2.3-.19-4.59-.39-6.86-.61-.69-.07-1.38-.14-2.07-.21-2.16-.22-4.31-.45-6.44-.69-.79-.09-1.58-.19-2.37-.29-2.02-.24-4.03-.49-6.02-.76-.9-.12-1.79-.25-2.69-.38-1.86-.27-3.73-.53-5.57-.82-1.03-.16-2.04-.33-3.06-.5-1.69-.28-3.39-.56-5.06-.85-1.2-.21-2.38-.44-3.57-.66-1.48-.28-2.96-.55-4.42-.84-1.48-.3-2.94-.61-4.4-.93-1.15-.24-2.31-.48-3.44-.73-2.13-.48-4.24-.98-6.34-1.49-.45-.11-.91-.21-1.36-.32-52.88-13.1-94.68-37.11-125.39-72.04-49.16-55.91-63.17-134.3-42.08-235.14H11.5c-21.09,100.84-7.08,179.23,42.08,235.14,49.14,55.91,126.66,83.86,232.56,83.86,10.88,0,21.24-.07,31.13-.23-.07,0-.14,0-.21,0-2.79-.08-5.57-.18-8.32-.29-.34-.01-.69-.03-1.03-.04ZM674.23,599.86l.57-597.86h-170.6l1.7,598.34c1.52,36.37-1.44,63.36-11.03,84.57-5.75,12.74-13.89,23.4-24.89,32.76-29.33,24.94-69.52,37.39-120.55,37.39-7.47,0-14.59-.38-21.37-1.12.1,0,.21-.02.31-.03-35.14-3.78-61.13-17.48-77.96-41.13-20.03-28.14-26.05-67.41-18.03-117.78H58.37c-21.09,100.84-7.08,179.23,42.08,235.14,30.69,34.92,72.46,58.93,125.3,72.04.45.11.91.21,1.36.32,2.1.51,4.21,1.01,6.34,1.49,1.14.25,2.3.49,3.44.73,1.46.31,2.92.63,4.4.93,1.46.29,2.94.56,4.42.84,1.19.22,2.37.45,3.57.66,1.67.3,3.37.58,5.06.85,1.02.17,2.04.34,3.06.5,1.84.29,3.7.56,5.57.82.9.13,1.79.26,2.69.38,1.99.27,4,.52,6.02.76.79.1,1.58.19,2.37.29,2.13.25,4.28.47,6.44.69.69.07,1.38.14,2.07.21,2.27.22,4.56.42,6.86.61.59.05,1.17.1,1.76.14,2.42.19,4.85.36,7.31.51.47.03.95.06,1.42.09,2.58.15,5.17.29,7.78.41.34.02.69.03,1.03.04,2.75.12,5.52.22,8.32.29,5.25.15,10.55.24,15.94.24,147.81,0,200.63-13.35,259.25-64.25,92.26-80.12,81.17-133.45,81.98-249.89Z"/>
  </g>
</svg>