<?xml version="1.0" encoding="UTF-8"?>
<svg id="Layer_2" data-name="Layer 2" xmlns="http://www.w3.org/2000/svg" viewBox="0 0 676.72 916">
  <defs>
    <style>
      .cls-1 {
        fill: none;
        stroke: #000;
        stroke-miterlimit: 10;
        stroke-width: 4px;
      }
    </style>
  </defs>
  <g id="Layer_1-2" data-name="Layer 1">
    <g>
      <path class="cls-1" d="M286.14,914c-105.91,0-183.42-27.95-232.56-83.86-49.16-55.91-63.17-134.3-42.08-235.14h174.02c-8.02,50.38-2,89.64,18.03,117.78,20.03,28.16,53.05,42.22,99.05,42.22,51.03,0,91.22-12.45,120.55-37.39,29.31-24.94,38.32-59.1,35.89-117.27l-1.7-598.34h170.6l-.57,597.86c-.8,116.44,10.29,169.77-81.98,249.89-58.62,50.9-111.44,64.25-259.25,64.25Z"/>
      <path class="cls-1" d="M332.92,914c-105.91,0-183.42-27.95-232.56-83.86-49.16-55.91-63.17-134.3-42.08-235.14h174.02c-8.02,50.38-2,89.64,18.03,117.78,20.03,28.16,53.05,42.22,99.05,42.22,51.03,0,91.22-12.45,120.55-37.39,29.31-24.94,38.32-59.1,35.89-117.27l-1.7-598.34h170.6l-.57,597.86c-.8,116.44,10.29,169.77-81.98,249.89-58.62,50.9-111.44,64.25-259.25,64.25Z"/>
    </g>
  </g>
</svg>